<mxfile host="Electron" modified="2023-12-05T02:28:58.719Z" agent="Mozilla/5.0 (X11; Linux x86_64) AppleWebKit/537.36 (KHTML, like Gecko) draw.io/21.2.8 Chrome/116.0.5845.228 Electron/26.3.0 Safari/537.36" version="21.2.8" etag="J_u8aslbaTV6Mo4tB2Oc" type="device">
  <diagram id="Vp3gCRHIlM6B2Je_Rki0" name="第 1 页">
    <mxGraphModel dx="573" dy="362" grid="1" gridSize="10" guides="1" tooltips="1" connect="1" arrows="1" fold="1" page="1" pageScale="1" pageWidth="827" pageHeight="1169" math="0" shadow="0">
      <root>
        <mxCell id="0" />
        <mxCell id="1" parent="0" />
        <mxCell id="51" style="edgeStyle=none;html=1;entryX=0;entryY=0;entryDx=0;entryDy=0;fontSize=8;exitX=1;exitY=1;exitDx=0;exitDy=0;strokeColor=#B3B3B3;fillColor=#bac8d3;" parent="1" source="12" target="23" edge="1">
          <mxGeometry relative="1" as="geometry">
            <mxPoint x="111" y="60" as="sourcePoint" />
          </mxGeometry>
        </mxCell>
        <mxCell id="2" value="A" style="rounded=0;whiteSpace=wrap;html=1;fontSize=10;fillColor=#dae8fc;strokeColor=#6c8ebf;" parent="1" vertex="1">
          <mxGeometry x="120" y="40" width="20" height="10" as="geometry" />
        </mxCell>
        <mxCell id="52" style="edgeStyle=none;html=1;entryX=0.5;entryY=0;entryDx=0;entryDy=0;fontSize=8;exitX=0.5;exitY=1;exitDx=0;exitDy=0;strokeColor=#B3B3B3;" parent="1" source="14" target="33" edge="1">
          <mxGeometry relative="1" as="geometry">
            <mxPoint x="141" y="70" as="sourcePoint" />
          </mxGeometry>
        </mxCell>
        <mxCell id="3" value="B" style="rounded=0;whiteSpace=wrap;html=1;fontSize=10;fillColor=#d5e8d4;strokeColor=#82b366;" parent="1" vertex="1">
          <mxGeometry x="140" y="40" width="10" height="10" as="geometry" />
        </mxCell>
        <mxCell id="4" value="C" style="rounded=0;whiteSpace=wrap;html=1;fontSize=10;fillColor=#ffe6cc;strokeColor=#d79b00;" parent="1" vertex="1">
          <mxGeometry x="150" y="40" width="30" height="10" as="geometry" />
        </mxCell>
        <mxCell id="5" value="D" style="rounded=0;whiteSpace=wrap;html=1;fontSize=10;fillColor=#fff2cc;strokeColor=#d6b656;" parent="1" vertex="1">
          <mxGeometry x="180" y="40" width="20" height="10" as="geometry" />
        </mxCell>
        <mxCell id="11" value="" style="group" parent="1" vertex="1" connectable="0">
          <mxGeometry x="120" y="50" width="80" height="10" as="geometry" />
        </mxCell>
        <mxCell id="12" value="&lt;span style=&quot;font-size: 8px;&quot;&gt;0&lt;/span&gt;" style="text;html=1;strokeColor=none;fillColor=none;align=center;verticalAlign=middle;whiteSpace=wrap;rounded=0;spacingLeft=0;spacing=2;spacingRight=0;spacingBottom=1;" parent="11" vertex="1">
          <mxGeometry width="10" height="10" as="geometry" />
        </mxCell>
        <mxCell id="13" value="&lt;span style=&quot;font-size: 8px;&quot;&gt;1&lt;/span&gt;" style="text;html=1;strokeColor=none;fillColor=none;align=center;verticalAlign=middle;whiteSpace=wrap;rounded=0;spacingLeft=0;spacing=2;spacingRight=0;spacingBottom=1;" parent="11" vertex="1">
          <mxGeometry x="10" width="10" height="10" as="geometry" />
        </mxCell>
        <mxCell id="14" value="&lt;span style=&quot;font-size: 8px;&quot;&gt;2&lt;/span&gt;" style="text;html=1;strokeColor=none;fillColor=none;align=center;verticalAlign=middle;whiteSpace=wrap;rounded=0;spacingLeft=0;spacing=2;spacingRight=0;spacingBottom=1;" parent="11" vertex="1">
          <mxGeometry x="20" width="10" height="10" as="geometry" />
        </mxCell>
        <mxCell id="15" value="&lt;span style=&quot;font-size: 8px;&quot;&gt;3&lt;/span&gt;" style="text;html=1;strokeColor=none;fillColor=none;align=center;verticalAlign=middle;whiteSpace=wrap;rounded=0;spacingLeft=0;spacing=2;spacingRight=0;spacingBottom=1;" parent="11" vertex="1">
          <mxGeometry x="30" width="10" height="10" as="geometry" />
        </mxCell>
        <mxCell id="16" value="&lt;span style=&quot;font-size: 8px;&quot;&gt;4&lt;/span&gt;" style="text;html=1;strokeColor=none;fillColor=none;align=center;verticalAlign=middle;whiteSpace=wrap;rounded=0;spacingLeft=0;spacing=2;spacingRight=0;spacingBottom=1;" parent="11" vertex="1">
          <mxGeometry x="40" width="10" height="10" as="geometry" />
        </mxCell>
        <mxCell id="17" value="&lt;span style=&quot;font-size: 8px;&quot;&gt;5&lt;/span&gt;" style="text;html=1;strokeColor=none;fillColor=none;align=center;verticalAlign=middle;whiteSpace=wrap;rounded=0;spacingLeft=0;spacing=2;spacingRight=0;spacingBottom=1;" parent="11" vertex="1">
          <mxGeometry x="50" width="10" height="10" as="geometry" />
        </mxCell>
        <mxCell id="18" value="&lt;span style=&quot;font-size: 8px;&quot;&gt;6&lt;/span&gt;" style="text;html=1;strokeColor=none;fillColor=none;align=center;verticalAlign=middle;whiteSpace=wrap;rounded=0;spacingLeft=0;spacing=2;spacingRight=0;spacingBottom=1;" parent="11" vertex="1">
          <mxGeometry x="60" width="10" height="10" as="geometry" />
        </mxCell>
        <mxCell id="19" value="&lt;span style=&quot;font-size: 8px;&quot;&gt;7&lt;/span&gt;" style="text;html=1;strokeColor=none;fillColor=none;align=center;verticalAlign=middle;whiteSpace=wrap;rounded=0;spacingLeft=0;spacing=2;spacingRight=0;spacingBottom=1;" parent="11" vertex="1">
          <mxGeometry x="70" width="10" height="10" as="geometry" />
        </mxCell>
        <mxCell id="20" value="&lt;b&gt;偏移&lt;/b&gt;" style="text;html=1;strokeColor=none;fillColor=none;align=center;verticalAlign=middle;whiteSpace=wrap;rounded=0;fontSize=8;" parent="1" vertex="1">
          <mxGeometry x="90" y="50" width="30" height="10" as="geometry" />
        </mxCell>
        <mxCell id="21" value="&lt;b&gt;指令缓存行&lt;/b&gt;" style="text;html=1;strokeColor=none;fillColor=none;align=center;verticalAlign=middle;whiteSpace=wrap;rounded=0;fontSize=8;" parent="1" vertex="1">
          <mxGeometry x="70" y="30" width="50" height="10" as="geometry" />
        </mxCell>
        <mxCell id="55" style="edgeStyle=none;html=1;exitX=0;exitY=1;exitDx=0;exitDy=0;fontSize=8;strokeColor=#B3B3B3;entryX=0.353;entryY=-0.056;entryDx=0;entryDy=0;entryPerimeter=0;" parent="1" source="23" target="76" edge="1">
          <mxGeometry relative="1" as="geometry">
            <mxPoint x="81" y="110" as="targetPoint" />
          </mxGeometry>
        </mxCell>
        <mxCell id="22" value="a0" style="rounded=0;whiteSpace=wrap;html=1;fontSize=10;fillColor=#dae8fc;strokeColor=#6c8ebf;" parent="1" vertex="1">
          <mxGeometry x="90" y="80" width="20" height="10" as="geometry" />
        </mxCell>
        <mxCell id="23" value="a1" style="rounded=0;whiteSpace=wrap;html=1;fontSize=10;fillColor=#dae8fc;strokeColor=#6c8ebf;" parent="1" vertex="1">
          <mxGeometry x="110" y="80" width="20" height="10" as="geometry" />
        </mxCell>
        <mxCell id="24" value="&lt;font style=&quot;font-size: 10px;&quot;&gt;a0&lt;/font&gt;" style="rounded=0;whiteSpace=wrap;html=1;fontSize=8;fillColor=#dae8fc;strokeColor=#6c8ebf;" parent="1" vertex="1">
          <mxGeometry x="80" y="120" width="20" height="10" as="geometry" />
        </mxCell>
        <mxCell id="25" value="&lt;span style=&quot;font-size: 10px;&quot;&gt;a1&lt;/span&gt;" style="rounded=0;whiteSpace=wrap;html=1;fontSize=8;fillColor=#dae8fc;strokeColor=#6c8ebf;" parent="1" vertex="1">
          <mxGeometry x="100" y="120" width="20" height="10" as="geometry" />
        </mxCell>
        <mxCell id="26" value="b0" style="rounded=0;whiteSpace=wrap;html=1;fontSize=10;fillColor=#d5e8d4;strokeColor=#82b366;" parent="1" vertex="1">
          <mxGeometry x="120" y="120" width="20" height="10" as="geometry" />
        </mxCell>
        <mxCell id="27" value="&lt;font style=&quot;font-size: 10px;&quot;&gt;c0&lt;/font&gt;" style="rounded=0;whiteSpace=wrap;html=1;fontSize=10;fillColor=#ffe6cc;strokeColor=#d79b00;" parent="1" vertex="1">
          <mxGeometry x="180" y="120" width="20" height="10" as="geometry" />
        </mxCell>
        <mxCell id="28" value="d0" style="rounded=0;whiteSpace=wrap;html=1;fontSize=10;fillColor=#fff2cc;strokeColor=#d6b656;" parent="1" vertex="1">
          <mxGeometry x="200" y="120" width="20" height="10" as="geometry" />
        </mxCell>
        <mxCell id="56" style="edgeStyle=none;html=1;fontSize=8;strokeColor=#B3B3B3;exitX=0.5;exitY=1;exitDx=0;exitDy=0;entryX=1;entryY=0.25;entryDx=0;entryDy=0;" parent="1" source="33" target="76" edge="1">
          <mxGeometry relative="1" as="geometry">
            <mxPoint x="121" y="110" as="targetPoint" />
          </mxGeometry>
        </mxCell>
        <mxCell id="33" value="b0" style="rounded=0;whiteSpace=wrap;html=1;fontSize=10;fillColor=#d5e8d4;strokeColor=#82b366;" parent="1" vertex="1">
          <mxGeometry x="140" y="80" width="20" height="10" as="geometry" />
        </mxCell>
        <mxCell id="57" style="edgeStyle=none;html=1;fontSize=8;strokeColor=#B3B3B3;entryX=0.25;entryY=0;entryDx=0;entryDy=0;" parent="1" source="34" target="78" edge="1">
          <mxGeometry relative="1" as="geometry">
            <mxPoint x="191" y="110" as="targetPoint" />
          </mxGeometry>
        </mxCell>
        <mxCell id="34" value="&lt;font style=&quot;font-size: 10px;&quot;&gt;c0&lt;/font&gt;" style="rounded=0;whiteSpace=wrap;html=1;fontSize=10;fillColor=#ffe6cc;strokeColor=#d79b00;" parent="1" vertex="1">
          <mxGeometry x="180" y="80" width="20" height="10" as="geometry" />
        </mxCell>
        <mxCell id="58" style="edgeStyle=none;html=1;exitX=0.5;exitY=1;exitDx=0;exitDy=0;fontSize=8;strokeColor=#B3B3B3;entryX=0.5;entryY=0;entryDx=0;entryDy=0;" parent="1" source="35" target="78" edge="1">
          <mxGeometry relative="1" as="geometry">
            <mxPoint x="211" y="110" as="targetPoint" />
          </mxGeometry>
        </mxCell>
        <mxCell id="35" value="d0" style="rounded=0;whiteSpace=wrap;html=1;fontSize=10;fillColor=#fff2cc;strokeColor=#d6b656;" parent="1" vertex="1">
          <mxGeometry x="210" y="80" width="20" height="10" as="geometry" />
        </mxCell>
        <mxCell id="45" value="&lt;b&gt;微码&lt;/b&gt;" style="text;html=1;strokeColor=none;fillColor=none;align=center;verticalAlign=middle;whiteSpace=wrap;rounded=0;fontSize=8;" parent="1" vertex="1">
          <mxGeometry x="50" y="80" width="30" height="10" as="geometry" />
        </mxCell>
        <mxCell id="46" value="&lt;b&gt;微码缓存行&lt;br&gt;(同一组)&lt;br&gt;&lt;/b&gt;" style="text;html=1;strokeColor=none;fillColor=none;align=center;verticalAlign=middle;whiteSpace=wrap;rounded=0;fontSize=8;" parent="1" vertex="1">
          <mxGeometry x="30" y="110" width="50" height="20" as="geometry" />
        </mxCell>
        <mxCell id="53" style="edgeStyle=none;html=1;exitX=0.5;exitY=1;exitDx=0;exitDy=0;entryX=0.5;entryY=0;entryDx=0;entryDy=0;fontSize=8;strokeColor=#B3B3B3;" parent="1" source="16" target="34" edge="1">
          <mxGeometry relative="1" as="geometry" />
        </mxCell>
        <mxCell id="54" style="edgeStyle=none;html=1;exitX=0.5;exitY=1;exitDx=0;exitDy=0;entryX=0.5;entryY=0;entryDx=0;entryDy=0;fontSize=8;strokeColor=#B3B3B3;" parent="1" source="19" target="35" edge="1">
          <mxGeometry relative="1" as="geometry" />
        </mxCell>
        <mxCell id="69" value="" style="rounded=0;whiteSpace=wrap;html=1;fontSize=10;strokeColor=#666666;" parent="1" vertex="1">
          <mxGeometry x="140" y="120" width="20" height="10" as="geometry" />
        </mxCell>
        <mxCell id="70" value="" style="rounded=0;whiteSpace=wrap;html=1;fontSize=10;strokeColor=#666666;" parent="1" vertex="1">
          <mxGeometry x="220" y="120" width="20" height="10" as="geometry" />
        </mxCell>
        <mxCell id="71" value="" style="rounded=0;whiteSpace=wrap;html=1;fontSize=10;strokeColor=#666666;" parent="1" vertex="1">
          <mxGeometry x="240" y="120" width="20" height="10" as="geometry" />
        </mxCell>
        <mxCell id="74" style="edgeStyle=none;html=1;exitX=0.75;exitY=1;exitDx=0;exitDy=0;strokeColor=#000000;strokeWidth=0.5;fontSize=8;endSize=2;" parent="1" source="75" edge="1">
          <mxGeometry relative="1" as="geometry">
            <mxPoint x="150.5" y="10" as="sourcePoint" />
            <mxPoint x="155.5" y="30" as="targetPoint" />
          </mxGeometry>
        </mxCell>
        <mxCell id="75" value="ret" style="text;html=1;strokeColor=none;fillColor=none;align=center;verticalAlign=middle;whiteSpace=wrap;rounded=0;dashed=1;fontSize=8;" parent="1" vertex="1">
          <mxGeometry x="134.5" y="30" width="20" height="10" as="geometry" />
        </mxCell>
        <mxCell id="76" value="&lt;b&gt;第0路&lt;br&gt;&lt;/b&gt;" style="text;html=1;strokeColor=none;fillColor=none;align=center;verticalAlign=middle;whiteSpace=wrap;rounded=0;fontSize=8;" parent="1" vertex="1">
          <mxGeometry x="80" y="110" width="60" height="10" as="geometry" />
        </mxCell>
        <mxCell id="78" value="&lt;b&gt;第1路&lt;br&gt;&lt;/b&gt;" style="text;html=1;strokeColor=none;fillColor=none;align=center;verticalAlign=middle;whiteSpace=wrap;rounded=0;fontSize=8;" parent="1" vertex="1">
          <mxGeometry x="180" y="110" width="60" height="10" as="geometry" />
        </mxCell>
        <mxCell id="81" value="指令缓存和微码缓存的关系&lt;br&gt;(假设每条微码缓存行4条微码，指令缓存行为8字节)" style="text;html=1;strokeColor=none;fillColor=none;align=center;verticalAlign=middle;whiteSpace=wrap;rounded=0;dashed=1;fontSize=8;" parent="1" vertex="1">
          <mxGeometry x="65" width="190" height="20" as="geometry" />
        </mxCell>
      </root>
    </mxGraphModel>
  </diagram>
</mxfile>
